<?xml version="1.0" encoding="utf-8"?>
<!-- Generator: Adobe Illustrator 19.1.0, SVG Export Plug-In . SVG Version: 6.00 Build 0)  -->
<svg version="1.1" xmlns="http://www.w3.org/2000/svg" xmlns:xlink="http://www.w3.org/1999/xlink" x="0px" y="0px"
	 viewBox="0 0 612 792" style="enable-background:new 0 0 612 792;" xml:space="preserve">
<style type="text/css">
	.st0{fill:#38A39E;}
	.st1{fill:#EEEEEE;}
	.st2{fill:none;stroke:#38A39E;stroke-width:7;stroke-miterlimit:10;}
	.st3{fill:#EEEEEE;stroke:#38A39E;stroke-width:4;stroke-miterlimit:10;}
	.st4{fill:none;stroke:#38A39E;stroke-width:2;stroke-miterlimit:10;}
</style>
<g id="Layer_3">
	<rect class="st0" width="612" height="792.4"/>
</g>
<g id="Layer_1">
	<ellipse class="st1" cx="117" cy="355.9" rx="21.8" ry="19"/>
	<ellipse class="st1" cx="140.3" cy="347.9" rx="23.5" ry="24.8"/>
	<ellipse class="st1" cx="155.6" cy="361.7" rx="24.6" ry="21.8"/>
	<ellipse class="st1" cx="131" cy="368.3" rx="20.9" ry="23.2"/>
</g>
<g id="Layer_2">
	<ellipse class="st1" cx="213" cy="166.1" rx="57.4" ry="52.6"/>
	<ellipse class="st1" cx="289.9" cy="149.2" rx="64.2" ry="54.7"/>
	<ellipse class="st1" cx="186.8" cy="212.3" rx="64.6" ry="55"/>
	<ellipse class="st1" cx="214.4" cy="242" rx="72.2" ry="64.9"/>
	<ellipse class="st1" cx="327.5" cy="189.1" rx="57.2" ry="49.4"/>
	<ellipse class="st1" cx="334.5" cy="230.9" rx="59.6" ry="51.5"/>
	<ellipse class="st1" cx="285" cy="242" rx="63.1" ry="63.9"/>
</g>
<g id="Layer_4">
	<polyline class="st2" points="203.4,165.1 170.2,206.5 203.4,250.5 	"/>
	<polyline class="st2" points="317.5,165.2 349.8,206.6 317.5,250.5 	"/>
</g>
<g id="Layer_5">
	<path class="st3" d="M297.3,196.7c0-20.5-16.9-37.1-37.6-37.1S222,176.2,222,196.7c0,13.3,7.1,24.9,17.7,31.4v20h39.9v-20
		C290.2,221.6,297.3,209.9,297.3,196.7z"/>
	<line class="st4" x1="239.7" y1="228.1" x2="279.6" y2="228.1"/>
	<line class="st4" x1="239.7" y1="234.4" x2="279.6" y2="233.8"/>
	<line class="st4" x1="239.7" y1="240.8" x2="277.5" y2="240.7"/>
	<path class="st4" d="M236.2,190.3c-0.1-1.1-0.3-6.3,3.6-10.9c3.7-4.3,8.5-5.1,9.6-5.2"/>
	<line class="st4" x1="221.2" y1="220.7" x2="213.6" y2="223.9"/>
	<line class="st4" x1="229.2" y1="160.8" x2="224" y2="153.3"/>
	<line class="st4" x1="215.3" y1="193.4" x2="206.2" y2="191.5"/>
	<line class="st4" x1="287.7" y1="161.3" x2="293.1" y2="153.3"/>
	<line class="st4" x1="304" y1="189.1" x2="312.2" y2="187.5"/>
	<line class="st4" x1="302.4" y1="214.4" x2="310.2" y2="220.7"/>
	<line class="st4" x1="259.6" y1="153.3" x2="259.6" y2="145.6"/>
	<line class="st4" x1="259.6" y1="145.6" x2="259.6" y2="143.9"/>
</g>
<g id="Layer_6">
</g>
</svg>
